<svg width="1024" height="1024" xmlns="http://www.w3.org/2000/svg">
 <g>
  <title>background</title>
  <rect x="-1" y="-1" width="1026" height="1026" id="canvas_background" fill="none"/>
 </g>

 <g>
  <title>Layer 1</title>
  <path class="svgpath" fill="#467fce" d="m509.298,289.802c121.10599,0 219.27597,98.17502 219.27597,219.28702c0,121.10599 -98.17199,219.27597 -219.27597,219.27597s-219.28698,-98.172 -219.28698,-219.27597c-0.00003,-121.10901 98.18298,-219.28702 219.28698,-219.28702l0,0zm2.70499,-216.898c59.31097,0 116.80701,11.601 170.89703,34.477c52.27601,22.113 99.245,53.781 139.59198,94.12899s72.01899,87.31401 94.13001,139.592c22.87701,54.08801 34.47601,111.587 34.47601,170.89801c0,59.30902 -11.599,116.80402 -34.47601,170.893c-22.11298,52.27802 -53.78296,99.24701 -94.13202,139.59302c-40.34796,40.35102 -87.31299,72.01801 -139.59296,94.13098c-54.08801,22.87903 -111.58703,34.47803 -170.89599,34.47803c-59.31003,0 -116.80503,-11.599 -170.89704,-34.47803c-52.27798,-22.11297 -99.24699,-53.78302 -139.59498,-94.13098s-72.01801,-87.31305 -94.13101,-139.59302c-22.87801,-54.08801 -34.47901,-111.58502 -34.47901,-170.893c0,-59.31101 11.601,-116.80701 34.479,-170.896c22.115,-52.27801 53.78299,-99.24701 94.131,-139.593c40.34799,-40.35 87.315,-72.01799 139.595,-94.129c54.08899,-22.87799 111.58701,-34.47899 170.89698,-34.47899m0.00201,-70.00701c-281.17299,0 -509.11099,227.932 -509.11099,509.10498c0,281.16699 227.938,509.104 509.11099,509.104s509.10504,-227.93701 509.10504,-509.104c-0.00006,-281.17298 -227.93201,-509.10498 -509.10504,-509.10498l0,0l0,0z" id="svg_1"/>
 </g>
</svg>