<svg width="1024" height="1024" xmlns="http://www.w3.org/2000/svg">
 <g>
  <rect fill="none" id="canvas_background" height="20482" width="20482" y="-1" x="-1"/>
 </g>
 <g>
  <path id="svg_1" d="m854.479614,166.739563c-186.316406,-186.317459 -488.373901,-186.317459 -674.660645,0c-186.318482,186.320526 -186.318482,488.372864 0,674.660645c186.286743,186.317444 488.344238,186.317444 674.660645,0c186.317505,-186.286743 186.317505,-488.340118 0,-674.660645zm-120.463623,506.010559c13.309143,13.313232 13.309143,34.910095 0,48.186462c-13.311157,13.312195 -34.903931,13.312195 -48.219238,0l-168.646973,-168.681763l-168.682831,168.681763c-13.27533,13.312195 -34.875275,13.312195 -48.185425,0c-13.309113,-13.276367 -13.309113,-34.87323 0,-48.186462l168.683838,-168.680786l-168.683838,-168.64798c-13.309113,-13.31015 -13.309113,-34.876312 0,-48.219208c13.31015,-13.276367 34.910095,-13.276367 48.185455,0l168.6828,168.681793l168.647034,-168.681793c13.315247,-13.276367 34.90802,-13.276367 48.219177,0c13.309143,13.342896 13.309143,34.909058 0,48.219208l-168.6828,168.64801l168.6828,168.680756z" fill="#b1b1b6" class="svgpath"/>
 </g>
</svg>