<svg width="1024" height="1024" xmlns="http://www.w3.org/2000/svg">

 <g>
  <title>Layer 1</title>
  <g id="svg_2">
   <rect x="-1" y="-1" width="1026" height="1026" id="canvas_background" fill="none"/>
  </g>
  <g id="svg_3">
   <path class="svgpath" fill="#467fce" d="m512,96c-229.799988,0 -416,186.200012 -416,416c0,229.799988 186.200012,416 416,416c229.799988,0 416,-186.200012 416,-416c0,-229.799988 -186.200012,-416 -416,-416zm0,34.600006c210.200012,0 381.400024,171 381.400024,381.399994c0,93 -33.400024,178.200012 -88.800049,244.400024c-40,-16.400024 -131.799988,-48.200012 -185.799988,-64.200012c-4.799988,-1.400024 -5.400024,-1.799988 -5.400024,-21.400024c0,-16.200012 6.600037,-32.599976 13.200012,-46.599976c7.200012,-15 15.400024,-40.400024 18.400024,-63.200012c8.399963,-9.799988 20,-29 27.200012,-65.800018c6.399963,-32.399994 3.399963,-44.199982 -0.800049,-55.199982c-0.399963,-1.200012 -1,-2.399994 -1.199951,-3.399994c-1.600037,-7.600006 0.599976,-47 6.199951,-77.600006c3.800049,-21 -1,-65.600006 -29.799988,-102.600006c-18.200012,-23.399994 -53.200012,-52 -117,-56l-35,0c-62.799988,4 -97.599976,32.600006 -116,56c-29,37 -33.799988,81.600006 -30,102.600006c5.600006,30.600006 7.800018,70 6.200012,77.600006c-0.399994,1.399994 -0.799988,2.399994 -1.200012,3.599976c-4.199982,11 -7.399994,22.800018 -0.799988,55.200012c7.399994,36.800018 18.799988,56.000031 27.200012,65.800018c3,22.799988 11.399994,48 18.399994,63.200012c5.199982,11 7.600006,26 7.600006,47.199951c0,19.800049 -0.800018,20 -5.200012,21.400024c-56.200012,16.599976 -145.199997,48.599976 -180.800003,64c-55.799988,-66.400024 -89.399979,-151.799988 -89.399979,-245c0,-210.200012 171.199982,-381.399994 381.399994,-381.399994l0.000002,0.000001z" id="svg_1"/>
  </g>
 </g>
</svg>