<svg width="1025" height="1024" xmlns="http://www.w3.org/2000/svg">
 <g>
  <rect fill="none" id="canvas_background" height="402" width="582" y="-1" x="-1"/>
 </g>
 <g>
  <path id="svg_1" d="m512.00033,260.912c-282.768,0 -512.32,230.624 -512,256c0.768,58.608 229.232,256 512,256c282.752,0 513.504,-207.568 511.968,-256c-1.344,-43.552 -229.2,-256 -511.968,-256m0,465.856c-115.904,0 -209.872,-93.952 -209.872,-209.856c0,-115.904 93.968,-209.872 209.872,-209.872s209.856,93.968 209.856,209.872c0,115.888 -93.936,209.856 -209.856,209.856" fill="#dedfe0" class="svgpath"/>
  <path id="svg_2" d="m512.00033,369.424c-81.472,0 -147.472,66.016 -147.472,147.472s66,147.472 147.472,147.472c81.456,0 147.488,-66.016 147.488,-147.472s-66.032,-147.472 -147.488,-147.472m73.664,147.488c-29.92,0 -54.192,-24.272 -54.192,-54.192c0,-29.936 24.272,-54.192 54.192,-54.192c29.936,0 54.208,24.272 54.208,54.192c0,29.92 -24.256,54.192 -54.208,54.192" fill="#dedfe0" class="svgpath"/>
 </g>
</svg>