<svg width="900" height="900" xmlns="http://www.w3.org/2000/svg">

 <g>
  <title>background</title>
  <rect fill="none" id="canvas_background" height="902" width="902" y="-1" x="-1"/>
 </g>
 <g>
  <title>Layer 1</title>
  <path id="svg_1" d="m449.477661,897.477661c246.854004,0 447,-200.145996 447,-447c0,-246.854019 -200.145996,-447.000015 -447,-447.000015c-246.854019,0 -447.000015,200.145996 -447.000015,447.000015c0,246.854004 200.145996,447 447.000015,447zm0,-864.200012c230.047974,0 417.200012,187.151993 417.200012,417.200012s-187.152039,417.200012 -417.200012,417.200012s-417.200012,-187.152039 -417.200012,-417.200012s187.151993,-417.200012 417.200012,-417.200012z" fill="#ff4040" class="svgpath"/>
  <path id="svg_2" d="m434.577637,208.352646l29.800049,0l0,342.700027l-29.800049,0l0,-342.700027z" fill="#ff4040" class="svgpath"/>
  <path id="svg_3" d="m449.477661,640.452637m-29.799988,0a29.799999,29.799999 0 1 0 59.599976,0a29.799999,29.799999 0 1 0 -59.599976,0z" fill="#ff4040" class="svgpath"/>
 </g>
</svg>