<svg width="1024" height="1024" xmlns="http://www.w3.org/2000/svg">
 <g>
  <rect fill="none" id="canvas_background" height="6828.669501" width="6828.669501" y="-1" x="-1"/>
 </g>
 <g>
  <path id="svg_1" d="m175.331757,495.028473m-127.737267,0a124.828003,124.828003 0 1 0 255.474541,0a124.828003,124.828003 0 1 0 -255.474541,0z" fill="#FFFFFF" class="svgpath"/>
  <path id="svg_2" d="m511.119446,495.028473m-127.737274,0a124.828003,124.828003 0 1 0 255.474518,0a124.828003,124.828003 0 1 0 -255.474518,0z" fill="#FFFFFF" class="svgpath"/>
  <path id="svg_3" d="m848.810486,495.028473m-127.737244,0a124.828003,124.828003 0 1 0 255.474487,0a124.828003,124.828003 0 1 0 -255.474487,0z" fill="#FFFFFF" class="svgpath"/>
 </g>
</svg>