<svg width="1024" height="1024" xmlns="http://www.w3.org/2000/svg">

 <g>
  <title>Layer 1</title>
  <g id="svg_4">
   <rect x="-1" y="-1" width="1026" height="1026" id="canvas_background" fill="none"/>
  </g>
  <g id="svg_5">
   <path class="svgpath" fill="#467fce" d="m512,128c212.031982,0 384,171.967987 384,384s-171.968018,384 -384,384s-384,-171.968018 -384,-384s171.967987,-384 384,-384m0,-64c-247.040009,0 -448,200.959991 -448,448c0,246.976013 200.960022,448 448,448c246.976013,0 448,-201.023987 448,-448c0,-247.040009 -201.023987,-448 -448,-448l0,0z" id="svg_1"/>
   <path class="svgpath" fill="#467fce" d="m480,440l64,0l0,320l-64,0l0,-320z" id="svg_2"/>
   <path class="svgpath" fill="#467fce" d="m512,337.920013m-48,0a0.75,0.75 0 1 0 96,0a0.75,0.75 0 1 0 -96,0z" id="svg_3"/>
  </g>
 </g>
</svg>